<svg preserveAspectRatio="none" overflow="visible" style="display: block;" width="15.7145" height="12.8571" viewBox="0 0 15.7145 12.8571" fill="none" xmlns="http://www.w3.org/2000/svg">
<path id="Vector" d="M4.11374 0H11.6002C12.1752 0 12.6502 -2.37487e-07 13.0359 0.0314283C13.438 0.0642855 13.8073 0.135 14.1537 0.311428C14.6913 0.585348 15.1284 1.02242 15.4023 1.56C15.573 1.89429 15.6445 2.25 15.6787 2.635C15.7161 2.7503 15.7234 2.8732 15.7002 2.99214C15.7145 3.31357 15.7145 3.68571 15.7145 4.11357V8.74357C15.7145 9.31857 15.7145 9.79357 15.6823 10.1793C15.6495 10.5814 15.5787 10.9507 15.4023 11.2971C15.1284 11.8347 14.6913 12.2718 14.1537 12.5457C13.8073 12.7221 13.438 12.7929 13.0366 12.8257C12.6502 12.8571 12.1752 12.8571 11.6009 12.8571H4.11302C3.53802 12.8571 3.06302 12.8571 2.67731 12.8257C2.27517 12.7929 1.90588 12.7221 1.55945 12.5457C1.02187 12.2718 0.584801 11.8347 0.310881 11.2971C0.134453 10.9507 0.0637384 10.5814 0.0308812 10.18C0.000166925 9.79357 0.000166931 9.31857 0.000166931 8.74429V4.11357C0.000166931 3.68571 0.000166971 3.31357 0.0130241 2.99214C-0.0100165 2.87314 -0.00239652 2.75024 0.0351669 2.635C0.0694526 2.24929 0.140881 1.89429 0.311596 1.56C0.585515 1.02242 1.02258 0.585348 1.56017 0.311428C1.9066 0.135 2.27588 0.0642855 2.67731 0.0314283C3.06374 -2.37487e-07 3.53874 0 4.11302 0H4.11374ZM1.42874 4.22857V8.71429C1.42874 9.32643 1.42874 9.74214 1.45588 10.0636C1.48088 10.3764 1.52731 10.5371 1.58445 10.6486C1.72141 10.9174 1.93995 11.1359 2.20874 11.2729C2.32088 11.33 2.48017 11.3764 2.79445 11.4014C3.11588 11.4279 3.5316 11.4286 4.14302 11.4286H11.5716C12.1837 11.4286 12.5995 11.4286 12.9209 11.4014C13.2345 11.3764 13.3945 11.33 13.5066 11.2729C13.7751 11.1358 13.9934 10.9173 14.1302 10.6486C14.1873 10.5371 14.2337 10.3771 14.2587 10.0636C14.2852 9.74214 14.2859 9.32643 14.2859 8.71429V4.22857L9.57802 7.525C9.55037 7.544 9.52275 7.56305 9.49517 7.58214C9.1066 7.85571 8.76445 8.09571 8.37588 8.19286C8.03538 8.27778 7.67924 8.27778 7.33874 8.19286C6.95017 8.09571 6.60874 7.85571 6.21945 7.58286C6.19187 7.56353 6.16425 7.54424 6.1366 7.525L1.42945 4.22929L1.42874 4.22857ZM14.2266 2.52643L8.75874 6.355C8.23731 6.71929 8.12731 6.78214 8.03017 6.80643C7.91667 6.83474 7.79795 6.83474 7.68445 6.80643C7.58731 6.78214 7.47731 6.71857 6.95588 6.35429L1.48802 2.52643C1.51374 2.37857 1.5466 2.28357 1.58445 2.20857C1.72141 1.93978 1.93995 1.72125 2.20874 1.58429C2.32088 1.52714 2.48017 1.48071 2.79445 1.45571C3.11588 1.42929 3.5316 1.42857 4.14302 1.42857H11.5716C12.1837 1.42857 12.5995 1.42857 12.9209 1.45571C13.2345 1.48071 13.3945 1.52714 13.5066 1.58429C13.7751 1.72137 13.9934 1.93989 14.1302 2.20857C14.168 2.28286 14.2016 2.37857 14.2266 2.52643Z" fill="#38434A"/>
</svg>
